<?xml version="1.0" encoding="UTF-8"?>
<svg id="Layer_1" data-name="Layer 1" xmlns="http://www.w3.org/2000/svg" viewBox="0 0 358 349">
  <defs>
    <style>
      .cls-1 {
        fill: #bf5700;
      }
    </style>
  </defs>
  <path class="cls-1" d="M76.38,198.41c-.11,1.09-.8,1.75-1.27,2.52-.7,1.13-1.45,2.23-2.08,3.41-2.48,4.68-2.42,9.35-.13,14.13,2.39,4.98,6.01,8.74,10.65,11.6,3.47,2.15,7.08,4.04,10.77,5.78,4.44,2.09,8.84,4.26,13.26,6.41,11.87,5.77,21.9,13.86,30.26,24.04,9.34,11.37,16.73,23.82,20.9,38.02,1.5,5.13,2.43,10.36,2.26,15.75-.06,1.84-.28,3.66-.68,5.44-2.08,9.27-8.61,15.14-18,16.67-4.81.78-9.46.06-14.12-.8-21.62-4-40.61-13.66-57.47-27.51-29.47-24.21-48.33-55.04-56.38-92.35-3.34-15.49-3.92-31.16-2.44-46.94,1.79-18.96,7.54-36.74,15.64-53.87,6.24-13.19,13.23-25.95,21.72-37.84,13.55-18.98,30.35-34.34,50.81-45.69,17.55-9.73,35.77-17.69,55.3-22.49,12.17-2.99,24.51-4.71,37.04-4.7,34.77.02,65.34,11.58,92.03,33.69,5.46,4.52,10.54,9.44,15.17,14.82.73.85,1.38,1.67,1.11,2.89-.3,1.38-.87,2.59-2.4,2.87-1.49.27-2.84.26-4.05-1.13-8.85-10.2-19.15-18.71-30.6-25.84-16.85-10.49-35.12-17.01-54.84-19.36-18.76-2.23-37.22-.38-55.39,4.5-22.06,5.91-42.49,15.52-61.52,28.02-13.05,8.57-24.07,19.48-33.48,31.9-15.06,19.86-26.19,41.83-34.07,65.46-2.99,8.98-4.37,18.25-5.29,27.63-.79,8.05-1.08,16.09-.59,24.18,1.11,18.32,5.52,35.81,13.18,52.45,12.71,27.6,31.58,49.95,57.32,66.29,12.34,7.83,25.64,13.38,40.07,16.03,3.66.67,7.32,1.5,11.13.94,9-1.31,13.49-6.27,13.77-15.44.15-4.96-.78-9.78-2.24-14.49-4.08-13.25-11.17-24.81-19.96-35.43-8.56-10.35-19.24-17.79-31.3-23.46-6.32-2.97-12.72-5.79-18.76-9.33-5.76-3.38-10.89-7.46-13.97-13.54-3.08-6.08-3.39-12.29-.06-18.42,1.41-2.6,3.43-4.7,5.98-6.24.76-.46,1.55-1.02,2.72-.55Z"/>
  <path class="cls-1" d="M328.38,126.15c-12.55-.31-23.18-5.36-32.54-13.39-5.36-4.6-9.65-10.09-12.75-16.46-.4-.81-.86-1.61-.71-2.6.21-1.41,1.18-2.6,2.42-2.87,1.76-.38,3.67.39,4.42,1.97,1.75,3.72,3.99,7.12,6.73,10.16,7.29,8.05,16.06,13.67,26.89,15.61,5.31.95,10.6.82,15.72-1.18,1.09-.43,2.09-1,3.09-1.61,3.37-2.06,3.76-6.49,1.94-9.21-1.4-2.1-3.18-3.84-5.06-5.48-4.22-3.67-8.87-6.74-13.54-9.78-6.98-4.53-13.59-9.58-20.17-14.67-.94-.73-2.72-1.7-2.15-2.69.73-1.26,2.4-.1,3.54.35,10.27,3.99,19.99,9.04,29,15.4,3.88,2.74,7.69,5.55,11,8.99,2.69,2.8,5,5.87,5.39,9.89.44,4.55-.8,8.55-4.33,11.67-3.83,3.4-8.5,4.79-13.41,5.51-1.8.27-3.63.51-5.47.39Z"/>
  <path class="cls-1" d="M197.18,151.67c-1.47.72-2.67.35-3.69.02-11.47-3.78-19.8-11.02-23.03-22.86-2.1-7.69.31-14.71,6.11-20.25,5.36-5.12,12.32-4.88,17.6.34,1.07,1.06,2.01,2.22,2.81,3.49,5.46,8.66,13.4,13.92,23.07,16.79.71.21,1.45.25,2,.89.96,1.12,1.19,2.58.49,3.68-.75,1.17-2.02,1.73-3.43,1.34-10.52-2.91-19.29-8.43-25.72-17.39-.92-1.28-1.75-2.64-2.76-3.85-3.22-3.85-6.96-3.99-10.49-.46-4.41,4.4-5.73,11.66-2.79,17.32,3.7,7.12,8.83,13.06,15.5,17.62,1.42.97,3.03,1.71,4.34,3.32Z"/>
  <path class="cls-1" d="M102.88,214.41c-1.29.64-2.36.15-3.27-.29-8.47-4.11-14.3-10.39-16.18-19.89-.35-1.77-.15-3.5.26-5.19,1.2-4.86,3.5-9.15,6.95-12.79.23-.24.46-.48.71-.7,5.35-4.84,11.25-4.15,15.29,1.8.84,1.24,1.57,2.55,2.43,3.78,3.85,5.51,9.08,9.18,15.34,11.48.77.28,1.62.38,2.17,1.11.85,1.13.98,2.7.24,3.73-.79,1.1-2.1,1.55-3.53,1.07-8.23-2.77-14.94-7.56-19.74-14.88-.82-1.25-1.56-2.57-2.49-3.74-1.49-1.88-2.82-2.08-4.73-.65-3.41,2.54-5.22,6.17-6.58,10.08-1.06,3.05-.25,5.88.92,8.7,2.29,5.57,5.67,10.33,10.3,14.21.51.43,1,.88,1.46,1.36.16.16.23.42.45.83Z"/>
  <path class="cls-1" d="M279.42,103.24c-.88,1.21-2.05,1.4-3.15,1.7-5.15,1.41-10.37,1.18-15.6.7-7.52-.69-14.33-3.41-20.72-7.34-4.62-2.84-9.46-5.19-14.72-6.63-3.07-.84-6.16-1.44-9.34-1.32-1.54.06-2.53-.63-3.31-1.8-1.52-2.25-.1-5.1,2.64-5.23,3.68-.18,7.3.35,10.85,1.27,5.51,1.43,10.73,3.57,15.56,6.56,10.61,6.56,22.21,9.96,34.53,11.17,1.06.1,2.15.07,3.25.91Z"/>
  <path class="cls-1" d="M118.37,172.71c.34-1.24,1.43-1.62,2.34-2.11,2.19-1.18,4.43-2.29,6.66-3.41,9-4.49,17.86-9.23,26.15-14.97,3.15-2.18,6.09-4.63,8.97-7.14.63-.55,1.24-1.11,2.1-1.28,1.61-.31,2.95.29,3.58,1.59.77,1.58.57,3.52-.59,4.57-2.65,2.4-5.43,4.64-8.29,6.79-10.32,7.74-21.64,13.27-34.38,15.69-1.39.26-2.78.53-4.17.71-.79.1-1.65.26-2.36-.44Z"/>
  <path class="cls-1" d="M223.68,99.21c2.16.02,2.97,1.08,2.25,3.03-.48,1.32-1.16,2.61-2.27,3.52-2.82,2.32-5.67,4.6-8.56,6.83-1.42,1.09-2.85,1.07-4.14.18-1.26-.87-1.79-2.23-1.42-3.7.21-.83.67-1.51,1.34-2.04,2.79-2.23,5.57-4.45,8.36-6.68,1.33-1.06,2.93-1.01,4.44-1.14Z"/>
  <path class="cls-1" d="M217.2,169.62c.14-.43.19-.77.34-1.04,2.04-3.54,1.52-6.99-.32-10.4-1.43-2.64-3.15-5.06-5.18-7.27-.39-.43-.81-.84-1.14-1.31-.63-.9-.36-1.79.34-2.47.71-.69,1.77-.97,2.49-.25,4.61,4.58,8.67,9.5,8.13,16.58-.18,2.29-1.21,4.3-3.07,5.78-.38.3-.76.67-1.59.39Z"/>
  <path class="cls-1" d="M226.36,162.23c-.23-.47.01-.75.17-.99,1.93-2.85,1.46-5.66-.18-8.42-1.84-3.09-4.19-5.76-6.8-8.22-.48-.45-1.05-.86-1.4-1.41-.52-.83-.49-1.75.17-2.54.65-.78,1.88-.99,2.67-.29,4.03,3.52,7.81,7.26,9.25,12.66.78,2.93.67,5.78-1.64,8.13-.61.62-1.25,1.32-2.25,1.08Z"/>
  <path class="cls-1" d="M132.22,226.74c.15-.51.22-.92.38-1.28,1.89-4.04,1.1-7.73-1.41-11.22-1.46-2.03-3.03-3.95-4.92-5.59-.5-.43-1.07-.83-1.45-1.36-.59-.81-.6-1.76.03-2.54.62-.76,1.52-1.01,2.47-.58,4.97,2.23,9.97,11.19,9.26,16.59-.29,2.22-1.28,4.1-2.95,5.59-.31.28-.63.55-1.41.38Z"/>
  <path class="cls-1" d="M122.07,223.56c.34-3.5-1.15-6.28-3.44-8.76-1.42-1.54-1.36-2.3.14-3.66.72-.65,1.34-.82,2.11,0,2.25,2.38,4.19,4.95,4.97,8.22.58,2.42.24,4.63-1.75,6.37-.49.43-1.01,1.02-1.73.67-.64-.31-.37-1.02-.39-1.57-.02-.41.06-.83.09-1.24Z"/>
  <path class="cls-1" d="M210.98,162.7c.03,2.64-.9,4.21-2.57,5.39-.42.3-.89.47-1.39.2-.56-.3-.5-.85-.39-1.32,1.02-4.18-.42-7.68-2.95-10.89-.41-.52-.95-1-.47-1.75.55-.85,1.16-1.64,2.18-1.94.37-.11.63.16.85.4,2.68,2.99,4.47,6.38,4.74,9.91Z"/>
  <path class="cls-1" d="M115.99,222.91c-.14,1.4-.8,2.5-2.04,3.19-.91.51-1.75.15-1.78-.88-.06-2.67-1.15-4.75-3.07-6.54-.89-.83-.52-1.76.79-3.11.8-.82,1.37-.58,2.06.1,2.03,2.02,3.73,4.21,4.03,7.23Z"/>
</svg>