<?xml version="1.0" encoding="UTF-8"?>
<svg id="Layer_1" data-name="Layer 1" xmlns="http://www.w3.org/2000/svg" viewBox="0 0 1302.11 435.2">
  <defs>
    <style>
      .cls-1 {
        fill: #1e3745;
      }

      .cls-2 {
        fill: #bf5700;
      }
    </style>
  </defs>
  <g id="sI1k2R.tif">
    <g>
      <path class="cls-1" d="M218.35,227.16c.46,2.55-.05,4.98.31,7.28.4.31.68.15.95-.05,6.93-4.8,14.77-7.25,22.97-8.5,10.08-1.53,20.12-.89,29.91,2.04,15.99,4.78,25.88,15.66,30.77,31.37,1.69,5.44,2.42,11.06,2.44,16.74.06,11.99.06,23.98,0,35.97-.03,5.85-.82,11.62-2.57,17.22-4.17,13.34-12.91,22.69-25.79,27.71-15.35,5.99-30.91,5.66-46.3-.27-3.91-1.51-7.43-3.73-10.64-6.42-.43-.36-.88-.7-1.74-1.38-.24,7.24-.08,14.08-.11,20.91-.03,6.83,0,13.65,0,20.48s0,13.76,0,20.94c-4.44-1.62-8.54-3.14-12.66-4.63-.73-.26-1.08-.69-1.03-1.47.03-.58,0-1.17,0-1.75,0-57.7,0-115.4,0-173.1,0-3.49-.53-3.06,2.99-3.08,3.49-.02,6.98,0,10.5,0ZM218.53,289.24c0,8.49-.02,16.98,0,25.48.01,3.33.23,6.66,1.07,9.9,2.64,10.12,9.36,16.5,18.93,19.95,9.23,3.33,18.76,3.67,28.28,1.47,12.41-2.87,25.26-13.84,25.08-31.62-.14-13.24-.04-26.48-.02-39.71,0-4.02-.47-7.98-1.59-11.83-2.6-8.94-7.73-15.66-16.53-19.43-7.56-3.24-15.38-4.81-23.56-4.55-5.09.16-10.12.87-14.88,2.82-6.58,2.68-12.06,6.65-15.52,13.06-.9,1.66-1.29,3.36-1.28,5.25.04,9.74.02,19.48.02,29.22Z"/>
      <path class="cls-1" d="M693.56,349.19v61.49c-.71.56-1.22.06-1.7-.11-3.37-1.2-6.72-2.44-10.07-3.69-1.89-.7-1.88-.72-1.9-2.86,0-.25,0-.5,0-.75,0-57.7,0-115.4,0-173.1,0-3.51-.51-2.98,3.03-3.01,3.08-.03,6.16.03,9.24-.03,1.11-.02,1.44.39,1.4,1.45-.06,1.98-.02,3.97-.02,5.85.46.32.74.2,1.03,0,6.92-4.82,14.75-7.29,22.96-8.53,10.68-1.61,21.29-.89,31.57,2.53,15.26,5.08,24.58,15.91,29.23,31.02,1.88,6.1,2.43,12.4,2.45,18.74.03,10.49.04,20.98,0,31.47-.02,6.01-.54,11.97-2.13,17.79-3.91,14.24-12.82,24.22-26.45,29.52-15.27,5.94-30.76,5.58-46.06-.3-3.91-1.5-7.43-3.72-10.67-6.38-.49-.4-.85-1.03-1.93-1.12ZM693.57,288.14c0,8.99-.02,17.98,0,26.98.01,3.93.4,7.82,1.68,11.56,3.11,9.1,9.64,14.78,18.47,17.96,8.16,2.94,16.6,3.27,25.12,2.04,13.49-1.95,28.12-13.07,28.12-31.9,0-13.57,0-27.14-.02-40.71,0-3.76-.53-7.48-1.59-11.09-2.58-8.81-7.54-15.58-16.24-19.38-7.38-3.22-15.03-4.85-23.03-4.72-6.29.1-12.45,1.05-18.16,3.88-5.72,2.83-10.5,6.71-13.37,12.6-.7,1.44-1.03,2.93-1.02,4.56.05,9.41.03,18.82.03,28.22Z"/>
      <path class="cls-2" d="M82.25,212.41c-.11,1.09-.8,1.75-1.27,2.52-.7,1.13-1.45,2.23-2.08,3.41-2.48,4.68-2.42,9.35-.13,14.13,2.39,4.98,6.01,8.74,10.65,11.6,3.47,2.15,7.08,4.04,10.77,5.78,4.44,2.09,8.84,4.26,13.26,6.41,11.87,5.77,21.9,13.86,30.26,24.04,9.34,11.37,16.73,23.82,20.9,38.02,1.5,5.13,2.43,10.36,2.26,15.75-.06,1.84-.28,3.66-.68,5.44-2.08,9.27-8.61,15.14-18,16.67-4.81.78-9.46.06-14.12-.8-21.62-4-40.61-13.66-57.47-27.51-29.47-24.21-48.33-55.04-56.38-92.35-3.34-15.49-3.92-31.16-2.44-46.94,1.79-18.96,7.54-36.74,15.64-53.87,6.24-13.19,13.23-25.95,21.72-37.84,13.55-18.98,30.35-34.34,50.81-45.69,17.55-9.73,35.77-17.69,55.3-22.49,12.17-2.99,24.51-4.71,37.04-4.7,34.77.02,65.34,11.58,92.03,33.69,5.46,4.52,10.54,9.44,15.17,14.82.73.85,1.38,1.67,1.11,2.89-.3,1.38-.87,2.59-2.4,2.87-1.49.27-2.84.26-4.05-1.13-8.85-10.2-19.15-18.71-30.6-25.84-16.85-10.49-35.12-17.01-54.84-19.36-18.76-2.23-37.22-.38-55.39,4.5-22.06,5.91-42.49,15.52-61.52,28.02-13.05,8.57-24.07,19.48-33.48,31.9-15.06,19.86-26.19,41.83-34.07,65.46-2.99,8.98-4.37,18.25-5.29,27.63-.79,8.05-1.08,16.09-.59,24.18,1.11,18.32,5.52,35.81,13.18,52.45,12.71,27.6,31.58,49.95,57.32,66.29,12.34,7.83,25.64,13.38,40.07,16.03,3.66.67,7.32,1.5,11.13.94,9-1.31,13.49-6.27,13.77-15.44.15-4.96-.78-9.78-2.24-14.49-4.08-13.25-11.17-24.81-19.96-35.43-8.56-10.35-19.24-17.79-31.3-23.46-6.32-2.97-12.72-5.79-18.76-9.33-5.76-3.38-10.89-7.46-13.97-13.54-3.08-6.08-3.39-12.29-.06-18.42,1.41-2.6,3.43-4.7,5.98-6.24.76-.46,1.55-1.02,2.72-.55Z"/>
      <path class="cls-1" d="M448.01,260.66c.33-.5.09-.98-.03-1.45-1.92-7.06-6.12-12.27-12.67-15.56-5.36-2.69-11.12-3.87-17.04-4.41-4.65-.42-9.31-.46-13.97-.43-2.17.01-2.14-.02-1.88-2.25.4-3.39.78-6.77,1.12-10.17.09-.92.43-1.26,1.4-1.26,9.58.03,19.15.21,28.44,3,6.31,1.89,11.79,5.34,17,9.25,1.68,1.26,3.09,2.84,4.14,4.64,4.09,7.01,7.52,14.21,7.83,22.6.22,5.9.55,11.81.56,17.71.03,24.22.02,48.45,0,72.67,0,3.03.51,2.68-2.57,2.96-14.5,1.34-29.01,2.7-43.6,2.58-10.03-.08-19.94-1.18-29.37-4.9-15.69-6.19-24.39-17.81-26.67-34.42-.4-2.9-.52-5.8-.52-8.71,0-7.24,0-14.48,0-21.73,0-6.24,1.12-12.26,3.73-17.94,4.81-10.5,13.24-16.6,24.14-19.62,6.56-1.82,13.27-2.22,20.04-1.99,13.28.45,26.06,3.09,38.14,8.78.57.27,1.09.77,1.81.62ZM449.18,311.33c0-10.41-.07-20.81.06-31.22.03-2.12-.61-3.3-2.45-4.31-16.08-8.85-33.27-12.52-51.48-10.44-10.22,1.16-16.91,7.21-20.08,17.02-1.06,3.27-1.39,6.67-1.41,10.1-.03,6.08,0,12.16-.01,18.23,0,3.16-.04,6.33.41,9.47,1.5,10.51,6.89,18.2,16.57,22.72,3.64,1.7,7.51,2.73,11.49,3.21,14.96,1.84,29.9,1.47,44.81-.59,2.07-.29,2.08-.31,2.08-2.47,0-10.57,0-21.15,0-31.72Z"/>
      <path class="cls-1" d="M657.18,223.17c1.85,3.69,3.58,7.19,5.35,10.67.32.63.29,1.08-.33,1.46-.07.04-.12.12-.2.15-4.95,2.74-5.8,7.62-6.45,12.54-.38,2.88-.46,5.8-.46,8.72.02,37.05,0,74.1.02,111.15,0,5.77-.47,11.47-2.14,17.02-2.38,7.89-7.01,14.07-14,18.47-4.84,3.04-10.14,4.96-15.55,6.64-.87.27-1.38.12-1.69-.83-1.18-3.64-2.39-7.26-3.63-10.88-.35-1.03.2-1.34,1.01-1.55,1.53-.39,3.07-.75,4.59-1.19,7.72-2.26,13.51-6.7,16.2-14.55.92-2.69,1.56-5.47,1.59-8.31.08-8.41.03-16.81.03-25.22-.16-.04-.38-.15-.44-.09-7.26,6.87-16.12,10.47-25.71,12.45-10.74,2.21-21.41,1.64-31.77-1.93-14.67-5.06-23.39-15.58-26.99-30.53-1.31-5.45-1.8-11-1.81-16.59-.02-27.06-.01-54.12-.01-81.18,0-.42.02-.83,0-1.25-.04-.81.28-1.22,1.15-1.22,3.83.02,7.66.02,11.49,0,.88,0,1.17.4,1.13,1.23-.04.66,0,1.33,0,2,0,27.73,0,55.45,0,83.18,0,4.52.53,8.97,1.94,13.28,3.47,10.64,10.56,17.3,21.65,19.45,8.37,1.63,16.75,1.53,24.97-.8,13.18-3.73,24.54-14.98,24.4-32.87-.13-17.15-.03-34.3-.03-51.46,0-6.92.29-13.81,1.47-20.65,1.17-6.81,4.52-12.07,10.71-15.37,1.09-.58,2.17-1.21,3.54-1.98Z"/>
      <path class="cls-1" d="M885.79,347.99c-6.2,5.7-12.88,9.12-20.33,11.05-7.92,2.05-15.98,2.07-24.06,1.36-5.16-.46-10.21-1.52-15.04-3.4-13.67-5.33-21.64-15.5-24.97-29.59-1.29-5.46-1.76-11.01-1.77-16.59-.02-27.06-.01-54.12-.01-81.17,0-.42.02-.83,0-1.25-.04-.8.25-1.23,1.13-1.23,3.83.02,7.66.02,11.49,0,.9,0,1.16.42,1.11,1.23-.04.66,0,1.33,0,2,0,26.72,0,53.45,0,80.17,0,5.18.47,10.29,1.89,15.3,3.14,11.06,10.24,17.87,21.59,19.96,9.64,1.77,19.27,1.6,28.57-1.77,10.41-3.78,17.36-10.88,19.68-21.99.58-2.77.72-5.6.72-8.44-.02-27.81-.02-55.61,0-83.42,0-3.46-.52-2.99,3.04-3.02,3-.03,6,.06,8.99-.04,1.38-.05,1.76.49,1.63,1.73-.05.49,0,1,0,1.5,0,41.54,0,83.09,0,124.63,0,3.71.4,3.1-3.2,3.14-2.83.03-5.66.02-8.49,0-1.92-.01-1.94-.03-1.96-1.89-.02-2.55,0-5.1,0-8.26Z"/>
      <path class="cls-1" d="M968.29,361.73c-8.68.08-16.74-.93-24.4-4.08-11.3-4.66-19.59-12.38-23.83-24.07-1.68-4.62-1.88-9.43-2.04-14.26-.03-.87.37-1.17,1.19-1.17,3.66.02,7.33.03,10.99,0,1.1-.01,1.45.5,1.5,1.49.07,1.41.09,2.84.32,4.23,1.85,11.01,8.55,17.95,18.7,21.76,6.58,2.47,13.49,2.76,20.44,2.32,4.58-.29,9.07-1.1,13.39-2.74,4.69-1.79,8.61-4.62,11.96-8.34,7.2-7.99,5.52-21.53-2.07-27.59-5.16-4.12-10.83-7.1-17.08-9.05-8.1-2.52-16.22-4.96-24.3-7.51-6.05-1.9-11.84-4.4-17.14-7.95-1.73-1.16-3.4-2.4-4.92-3.83-9.2-8.68-10.84-19.3-6.89-30.71,4.5-13,13.49-21.58,27.3-24.41,12.3-2.52,24.47-2.28,36.43,1.93,4.19,1.47,7.86,3.96,11.8,5.93.81.4.82.91.44,1.61-1.81,3.37-3.62,6.74-5.38,10.14-.5.96-1.03.81-1.78.36-1.28-.77-2.59-1.51-3.93-2.18-11.75-5.95-23.97-7.05-36.58-3.3-4.44,1.32-8.47,3.55-11.65,6.98-5.08,5.49-5.84,11.94-3.63,18.83.96,2.99,3.29,4.95,5.9,6.54,5.43,3.31,11.23,5.78,17.32,7.58,8.45,2.51,16.89,5.04,25.2,7.98,7.31,2.58,13.85,6.44,19.52,11.77,6,5.65,8.87,12.71,9.63,20.79,1.89,20.02-12.78,34.11-27.15,38.34-6.44,1.9-13.01,2.74-19.27,2.62Z"/>
      <path class="cls-1" d="M542.3,227.41c-2.06,4.35-4.01,8.47-5.95,12.59-.28.61-.71.86-1.37.83-.58-.03-1.17,0-1.75,0-9.58,0-19.15,0-28.73,0-.58,0-1.17.03-1.75,0-.87-.04-1.18.4-1.15,1.21.02.5,0,1,0,1.5,0,25.81,0,51.62,0,77.44,0,4.01.3,7.97,1.38,11.86,1.26,4.55,3.88,8.03,7.85,10.55,3.54,2.25,7.4,3.76,11.38,5.02.63.2,1.25.5,1.89.61,1.15.2,1.27.81.93,1.78-.82,2.35-1.57,4.73-2.41,7.08-.5,1.4-.46,3.35-1.64,4.04-1.22.7-2.83-.45-4.25-.86-5.8-1.67-11.25-4.09-16.03-7.87-6.37-5.04-9.79-11.83-11.58-19.58-.96-4.16-1.26-8.39-1.26-12.64-.01-46.55,0-93.09,0-139.64,0-.42.04-.84,0-1.25-.11-1.13.45-1.41,1.49-1.39,3.5.04,6.99,0,10.49.02,1.72.01,1.76.05,1.76,1.82.01,9.24,0,18.48,0,27.73,0,5.58,0,11.16,0,16.74,0,2.15.02,2.17,2.19,2.17,11.82,0,23.65,0,35.47.01.91,0,1.83-.14,3.04.24Z"/>
      <path class="cls-1" d="M338.77,268.45c0,28.88,0,57.77,0,86.65,0,3.47.39,3-3.07,3.03-3,.02-5.99-.04-8.99.02-1.15.02-1.74-.28-1.61-1.53.06-.58,0-1.16,0-1.75,0-57.69,0-115.37,0-173.06q0-3.13,3.19-3.13c2.66,0,5.33,0,7.99,0,2.85,0,2.45-.17,2.48,2.6,0,.5,0,1,0,1.5,0,28.55,0,57.1,0,85.66Z"/>
      <path class="cls-1" d="M1042.73,237.01c1.09.1,1.77-.44,2.51-.76,9.83-4.23,20.09-6.41,30.78-6.56,8.59-.13,17.14.27,25.49,2.56,15.37,4.21,24.98,15.96,26.17,31.85.21,2.74.3,5.48.3,8.23-.01,14.15,0,28.3-.01,42.45,0,4.42-.39,8.81-1.55,13.1-2.76,10.2-9.11,17.35-18.56,21.92-8.91,4.3-18.34,6.45-28.18,6.73-10.75.31-21.46-.49-32.13-1.71-2.73-.31-5.44-.71-8.17-.99-1.04-.11-1.47-.54-1.36-1.58.06-.58,0-1.16,0-1.75,0-54.69,0-109.37.01-164.06,0-3.65-.8-3.18,3.31-3.26,1.12-.02,1.49.4,1.39,1.46-.06.58,0,1.16,0,1.75,0,15.98,0,31.96,0,47.94v2.69ZM1123.16,292.82c0-7.41,0-14.81,0-22.22,0-2.67-.12-5.32-.53-7.96-1.09-6.93-3.76-13.08-8.9-18-6.25-5.98-13.77-9.11-22.33-9.95-6.9-.68-13.79-.65-20.68.02-8.75.86-17.18,2.9-25.27,6.4-1.99.86-2.79,1.85-2.78,4.19.1,33.37.07,66.74.07,100.11,0,.5.04,1,0,1.5-.11,1.1.26,1.75,1.45,1.81.49.03.97.23,1.46.33,13.22,2.63,26.54,3.49,39.97,2.07,7.07-.75,13.94-2.32,20.33-5.56,8.14-4.14,13.65-10.48,15.98-19.4.87-3.31,1.26-6.69,1.25-10.13-.02-7.74,0-15.48,0-23.22Z"/>
      <path class="cls-1" d="M1285.01,292.72c0,6.83.2,13.66-.05,20.48-.31,8.53-2.61,16.55-7.03,23.93-5.41,9.03-13.19,14.87-23.41,17.32-9.63,2.31-19.32,2.34-28.93-.01-14.03-3.43-22.85-12.65-27.98-25.78-2.55-6.52-3.39-13.37-3.43-20.31-.06-11.07-.06-22.14.07-33.22.07-6.17.82-12.28,2.75-18.19,4.5-13.85,13.74-22.7,27.88-26.28,9.44-2.39,18.99-2.49,28.44-.2,15.56,3.77,25.2,13.82,29.66,29.01,1.6,5.47,2.17,11.09,2.15,16.78-.02,5.49,0,10.99,0,16.48-.03,0-.07,0-.1,0ZM1199.04,292.04h0c0,6.33-.11,12.65.03,18.98.2,8.83,2.56,17.04,7.34,24.54,4.44,6.96,10.53,11.68,18.44,14.04,6.38,1.9,12.92,2.29,19.52,1.82,4.5-.32,8.9-1.16,13.13-2.79,9.66-3.73,15.57-11.06,19.4-20.34,2.47-6,3.46-12.32,3.5-18.77.05-11.07,0-22.14.02-33.21,0-3.84-.27-7.65-.93-11.43-2.36-13.56-9.86-23.14-22.7-28.1-11.65-4.51-23.49-4.36-35.05.43-10.14,4.19-17.18,11.5-20.49,22.12-1.44,4.63-2.17,9.4-2.2,14.25-.04,6.16-.01,12.32-.01,18.48Z"/>
      <path class="cls-2" d="M334.25,140.15c-12.55-.31-23.18-5.36-32.54-13.39-5.36-4.6-9.65-10.09-12.75-16.46-.4-.81-.86-1.61-.71-2.6.21-1.41,1.18-2.6,2.42-2.87,1.76-.38,3.67.39,4.42,1.97,1.75,3.72,3.99,7.12,6.73,10.16,7.29,8.05,16.06,13.67,26.89,15.61,5.31.95,10.6.82,15.72-1.18,1.09-.43,2.09-1,3.09-1.61,3.37-2.06,3.76-6.49,1.94-9.21-1.4-2.1-3.18-3.84-5.06-5.48-4.22-3.67-8.87-6.74-13.54-9.78-6.98-4.53-13.59-9.58-20.17-14.67-.94-.73-2.72-1.7-2.15-2.69.73-1.26,2.4-.1,3.54.35,10.27,3.99,19.99,9.04,29,15.4,3.88,2.74,7.69,5.55,11,8.99,2.69,2.8,5,5.87,5.39,9.89.44,4.55-.8,8.55-4.33,11.67-3.83,3.4-8.5,4.79-13.41,5.51-1.8.27-3.63.51-5.47.39Z"/>
      <path class="cls-2" d="M203.05,165.67c-1.47.72-2.67.35-3.69.02-11.47-3.78-19.8-11.02-23.03-22.86-2.1-7.69.31-14.71,6.11-20.25,5.36-5.12,12.32-4.88,17.6.34,1.07,1.06,2.01,2.22,2.81,3.49,5.46,8.66,13.4,13.92,23.07,16.79.71.21,1.45.25,2,.89.96,1.12,1.19,2.58.49,3.68-.75,1.17-2.02,1.73-3.43,1.34-10.52-2.91-19.29-8.43-25.72-17.39-.92-1.28-1.75-2.64-2.76-3.85-3.22-3.85-6.96-3.99-10.49-.46-4.41,4.4-5.73,11.66-2.79,17.32,3.7,7.12,8.83,13.06,15.5,17.62,1.42.97,3.03,1.71,4.34,3.32Z"/>
      <path class="cls-1" d="M1157.18,292.72c0-19.39-.01-38.78.01-58.17,0-3.16-.69-2.9,2.89-2.91,1.94,0,1.95.03,1.96,2.1.01,3.66,0,7.32,0,10.98,0,35.2,0,70.4,0,105.6,0,.67-.03,1.33,0,2,.06.93-.3,1.29-1.28,1.36-3.58.25-3.58.29-3.58-3.29,0-19.22,0-38.44,0-57.67Z"/>
      <path class="cls-2" d="M108.75,228.41c-1.29.64-2.36.15-3.27-.29-8.47-4.11-14.3-10.39-16.18-19.89-.35-1.77-.15-3.5.26-5.19,1.2-4.86,3.5-9.15,6.95-12.79.23-.24.46-.48.71-.7,5.35-4.84,11.25-4.15,15.29,1.8.84,1.24,1.57,2.55,2.43,3.78,3.85,5.51,9.08,9.18,15.34,11.48.77.28,1.62.38,2.17,1.11.85,1.13.98,2.7.24,3.73-.79,1.1-2.1,1.55-3.53,1.07-8.23-2.77-14.94-7.56-19.74-14.88-.82-1.25-1.56-2.57-2.49-3.74-1.49-1.88-2.82-2.08-4.73-.65-3.41,2.54-5.22,6.17-6.58,10.08-1.06,3.05-.25,5.88.92,8.7,2.29,5.57,5.67,10.33,10.3,14.21.51.43,1,.88,1.46,1.36.16.16.23.42.45.83Z"/>
      <path class="cls-2" d="M285.29,117.24c-.88,1.21-2.05,1.4-3.15,1.7-5.15,1.41-10.37,1.18-15.6.7-7.52-.69-14.33-3.41-20.72-7.34-4.62-2.84-9.46-5.19-14.72-6.63-3.07-.84-6.16-1.44-9.34-1.32-1.54.06-2.53-.63-3.31-1.8-1.52-2.25-.1-5.1,2.64-5.23,3.68-.18,7.3.35,10.85,1.27,5.51,1.43,10.73,3.57,15.56,6.56,10.61,6.56,22.21,9.96,34.53,11.17,1.06.1,2.15.07,3.25.91Z"/>
      <path class="cls-2" d="M124.24,186.71c.34-1.24,1.43-1.62,2.34-2.11,2.19-1.18,4.43-2.29,6.66-3.41,9-4.49,17.86-9.23,26.15-14.97,3.15-2.18,6.09-4.63,8.97-7.14.63-.55,1.24-1.11,2.1-1.28,1.61-.31,2.95.29,3.58,1.59.77,1.58.57,3.52-.59,4.57-2.65,2.4-5.43,4.64-8.29,6.79-10.32,7.74-21.64,13.27-34.38,15.69-1.39.26-2.78.53-4.17.71-.79.1-1.65.26-2.36-.44Z"/>
      <path class="cls-2" d="M229.55,113.21c2.16.02,2.97,1.08,2.25,3.03-.48,1.32-1.16,2.61-2.27,3.52-2.82,2.32-5.67,4.6-8.56,6.83-1.42,1.09-2.85,1.07-4.14.18-1.26-.87-1.79-2.23-1.42-3.7.21-.83.67-1.51,1.34-2.04,2.79-2.23,5.57-4.45,8.36-6.68,1.33-1.06,2.93-1.01,4.44-1.14Z"/>
      <path class="cls-2" d="M223.08,183.62c.14-.43.19-.77.34-1.04,2.04-3.54,1.52-6.99-.32-10.4-1.43-2.64-3.15-5.06-5.18-7.27-.39-.43-.81-.84-1.14-1.31-.63-.9-.36-1.79.34-2.47.71-.69,1.77-.97,2.49-.25,4.61,4.58,8.67,9.5,8.13,16.58-.18,2.29-1.21,4.3-3.07,5.78-.38.3-.76.67-1.59.39Z"/>
      <path class="cls-2" d="M232.24,176.23c-.23-.47.01-.75.17-.99,1.93-2.85,1.46-5.66-.18-8.42-1.84-3.09-4.19-5.76-6.8-8.22-.48-.45-1.05-.86-1.4-1.41-.52-.83-.49-1.75.17-2.54.65-.78,1.88-.99,2.67-.29,4.03,3.52,7.81,7.26,9.25,12.66.78,2.93.67,5.78-1.64,8.13-.61.62-1.25,1.32-2.25,1.08Z"/>
      <path class="cls-2" d="M138.09,240.74c.15-.51.22-.92.38-1.28,1.89-4.04,1.1-7.73-1.41-11.22-1.46-2.03-3.03-3.95-4.92-5.59-.5-.43-1.07-.83-1.45-1.36-.59-.81-.6-1.76.03-2.54.62-.76,1.52-1.01,2.47-.58,4.97,2.23,9.97,11.19,9.26,16.59-.29,2.22-1.28,4.1-2.95,5.59-.31.28-.63.55-1.41.38Z"/>
      <path class="cls-2" d="M127.95,237.56c.34-3.5-1.15-6.28-3.44-8.76-1.42-1.54-1.36-2.3.14-3.66.72-.65,1.34-.82,2.11,0,2.25,2.38,4.19,4.95,4.97,8.22.58,2.42.24,4.63-1.75,6.37-.49.43-1.01,1.02-1.73.67-.64-.31-.37-1.02-.39-1.57-.02-.41.06-.83.09-1.24Z"/>
      <path class="cls-2" d="M216.85,176.7c.03,2.64-.9,4.21-2.57,5.39-.42.3-.89.47-1.39.2-.56-.3-.5-.85-.39-1.32,1.02-4.18-.42-7.68-2.95-10.89-.41-.52-.95-1-.47-1.75.55-.85,1.16-1.64,2.18-1.94.37-.11.63.16.85.4,2.68,2.99,4.47,6.38,4.74,9.91Z"/>
      <path class="cls-2" d="M121.86,236.91c-.14,1.4-.8,2.5-2.04,3.19-.91.51-1.75.15-1.78-.88-.06-2.67-1.15-4.75-3.07-6.54-.89-.83-.52-1.76.79-3.11.8-.82,1.37-.58,2.06.1,2.03,2.02,3.73,4.21,4.03,7.23Z"/>
      <path class="cls-1" d="M1159.54,187.38c-2.2-.03-3.37-1.26-3.29-3.45.08-2.08,1.22-3.16,3.33-3.18,2.22-.02,3.43,1.17,3.42,3.34,0,2.16-1.22,3.31-3.46,3.28Z"/>
    </g>
  </g>
</svg>